<?xml version="1.0" standalone="no"?>
<!DOCTYPE svg PUBLIC "-//W3C//DTD SVG 20010904//EN"
 "http://www.w3.org/TR/2001/REC-SVG-20010904/DTD/svg10.dtd">
<svg version="1.0" xmlns="http://www.w3.org/2000/svg"
 width="500.000000pt" height="500.000000pt" viewBox="0 0 500.000000 500.000000"
 preserveAspectRatio="xMidYMid meet">
<metadata>
Created by potrace 1.14, written by Peter Selinger 2001-2017
</metadata>
<g transform="translate(0.000000,500.000000) scale(0.100000,-0.100000)"
fill="#000000" stroke="none">
<path d="M1233 3863 c-12 -2 -24 -11 -27 -19 -7 -17 10 -54 24 -54 5 0 11 -8
14 -18 4 -11 17 -25 31 -32 13 -7 22 -17 20 -21 -3 -4 4 -11 16 -14 11 -4 18
-9 16 -12 -3 -2 32 -41 76 -86 45 -45 81 -85 79 -90 -1 -4 4 -6 11 -5 6 2 11
-3 9 -9 -1 -7 3 -13 9 -13 15 0 39 -26 32 -34 -4 -3 1 -6 10 -6 10 0 17 -8 17
-17 0 -9 2 -14 5 -11 7 7 70 -54 67 -64 -1 -4 7 -10 18 -13 11 -4 18 -10 15
-15 -3 -5 4 -11 15 -15 11 -3 20 -12 20 -20 0 -8 8 -16 18 -19 21 -7 42 -69
30 -90 -5 -9 -4 -17 2 -21 7 -4 7 -12 2 -18 -10 -14 -10 -27 1 -44 5 -7 4 -13
-1 -13 -12 0 -10 -43 3 -52 6 -5 6 -8 -1 -8 -11 0 -12 -28 -1 -46 3 -6 3 -14
0 -18 -11 -11 -12 -36 -1 -36 6 0 5 -6 -2 -15 -10 -12 -10 -15 1 -15 9 0 10
-3 4 -8 -6 -4 -11 -20 -11 -37 0 -16 5 -33 11 -37 7 -5 7 -8 0 -8 -6 0 -10
-26 -10 -60 0 -33 4 -60 8 -60 5 0 5 -4 2 -10 -11 -18 -14 -50 -4 -55 5 -4 5
-14 -1 -26 -8 -14 -7 -19 2 -19 10 0 10 -2 0 -9 -10 -6 -6 -11 17 -19 17 -6
31 -8 31 -4 0 8 86 6 108 -3 6 -2 12 -1 12 3 0 9 47 9 55 0 3 -3 23 -2 45 2
24 4 43 3 49 -3 7 -7 11 -7 11 -1 0 5 22 9 49 8 l50 -2 -3 49 c-1 29 2 49 8
49 6 0 4 5 -4 10 -12 8 -12 10 -1 10 11 0 11 3 1 15 -10 12 -10 15 1 15 9 0
10 3 4 8 -5 4 -10 45 -10 92 0 47 5 88 10 92 7 5 7 8 0 8 -11 0 -12 101 -1
118 4 7 4 12 -1 12 -10 0 -8 133 1 149 4 6 2 11 -5 11 -8 0 -9 3 -4 9 13 12
67 17 82 8 6 -4 14 -3 17 1 6 10 48 8 65 -2 5 -4 12 -2 15 3 4 6 18 6 36 1 19
-5 30 -5 30 1 0 6 4 8 8 5 4 -2 39 -5 77 -7 39 -1 76 -6 83 -12 6 -5 12 -6 12
-1 0 7 59 10 68 4 1 -2 7 -4 12 -5 6 -1 11 -4 13 -5 1 -1 11 -4 22 -6 52 -8
80 -16 86 -25 3 -6 9 -10 13 -10 29 4 46 -1 40 -11 -5 -8 -2 -9 9 -5 10 4 20
0 26 -11 6 -9 11 -13 11 -8 0 5 7 3 15 -4 8 -7 15 -10 15 -6 0 3 12 -4 26 -17
14 -12 27 -20 28 -17 4 8 156 -146 156 -159 0 -6 4 -11 9 -11 6 0 20 -18 32
-40 13 -22 26 -40 31 -40 4 0 5 -7 2 -15 -4 -8 -1 -15 6 -15 6 0 8 -4 5 -10
-3 -5 -2 -10 3 -10 9 0 25 -37 23 -52 -1 -5 3 -8 8 -8 6 0 8 -9 6 -20 -2 -11
0 -20 6 -20 5 0 9 -13 9 -30 0 -16 5 -30 10 -30 6 0 10 -8 10 -18 0 -21 42
-48 58 -38 6 3 14 2 17 -4 5 -8 11 -8 19 -1 7 6 16 8 20 4 10 -11 99 -3 115
10 12 10 13 9 7 -3 -4 -9 -2 -8 7 2 8 10 18 14 22 10 5 -4 5 -2 1 5 -3 6 -2
14 4 18 13 8 13 55 1 55 -6 0 -8 9 -6 20 2 11 -1 20 -6 20 -6 0 -7 5 -4 10 3
6 1 10 -5 10 -7 0 -10 6 -7 14 3 8 0 16 -7 19 -16 6 -15 59 2 65 7 2 11 0 10
-5 -5 -14 96 -213 109 -213 6 0 19 -10 27 -22 9 -12 16 -18 16 -13 0 6 5 3 10
-5 5 -8 10 -10 10 -5 0 10 126 12 136 3 3 -3 20 -2 39 2 19 4 37 5 41 1 4 -3
4 -1 1 5 -3 6 2 16 12 23 26 19 19 55 -29 144 -22 43 -37 77 -33 77 5 0 3 4
-3 8 -6 4 -19 23 -29 42 -10 18 -24 40 -31 48 -8 7 -12 18 -9 23 4 5 1 9 -4 9
-6 0 -11 7 -11 15 0 8 -4 15 -10 15 -5 0 -10 5 -10 11 0 7 -8 18 -17 26 -12
10 -13 12 -3 8 12 -5 12 -4 -1 7 -9 7 -19 23 -23 35 -4 11 -13 24 -21 27 -8 3
-15 12 -15 21 0 8 -4 15 -10 15 -5 0 -10 6 -10 13 0 7 -9 18 -20 25 -11 7 -20
18 -20 26 0 8 -7 17 -16 20 -9 4 -14 9 -11 12 3 3 -8 19 -24 35 -16 15 -29 33
-29 39 0 5 -7 10 -17 10 -9 0 -14 3 -10 6 3 3 -5 17 -19 31 -13 13 -24 28 -24
33 0 6 -7 10 -16 10 -8 0 -13 4 -10 8 3 4 -11 21 -30 37 -19 16 -34 33 -34 39
0 6 -14 20 -30 31 -16 11 -30 26 -30 33 0 6 -3 12 -8 12 -4 0 -21 12 -38 28
-66 58 -110 92 -122 92 -7 0 -10 5 -7 10 3 6 -3 10 -15 10 -11 0 -23 7 -26 15
-4 8 -10 13 -14 10 -4 -3 -13 2 -20 10 -7 8 -16 12 -21 9 -5 -3 -9 -1 -9 4 0
9 -37 25 -52 23 -5 -1 -8 4 -8 10 0 5 -4 7 -10 4 -5 -3 -10 -1 -10 5 0 6 -4 9
-9 5 -5 -3 -12 -1 -16 5 -4 6 -10 8 -15 5 -5 -3 -11 -1 -15 5 -4 6 -11 8 -16
5 -5 -4 -9 -1 -9 5 0 6 -4 8 -10 5 -5 -3 -18 -1 -28 4 -11 6 -32 13 -48 16
-41 9 -59 13 -59 15 0 1 -11 3 -25 4 -14 0 -31 5 -39 10 -10 7 -12 6 -6 -4 6
-10 4 -11 -6 -4 -20 12 -37 13 -279 17 -119 1 -221 6 -228 11 -6 4 -12 2 -12
-3 0 -12 -27 -10 -47 2 -7 5 -13 5 -13 0 0 -4 -75 -8 -168 -8 -95 0 -172 -4
-178 -9 -6 -6 -10 -21 -8 -33 1 -13 -1 -23 -5 -23 -3 0 -6 -20 -6 -44 0 -24 4
-42 9 -39 5 3 7 0 4 -8 -2 -7 4 -22 13 -33 10 -10 17 -22 16 -25 -2 -3 10 -18
25 -33 15 -15 28 -24 28 -22 0 3 7 -2 16 -10 8 -9 20 -14 25 -11 5 4 9 2 9 -3
0 -5 6 -9 13 -10 6 -1 33 -3 59 -6 25 -2 51 -7 57 -10 6 -4 11 -3 11 3 0 7 8
7 24 1 15 -5 27 -5 34 2 6 6 12 6 16 -1 4 -6 12 -11 17 -11 6 0 8 3 6 8 -3 4
6 7 19 7 13 0 24 -3 24 -7 0 -8 21 -5 38 5 7 5 12 3 12 -4 0 -9 3 -9 14 0 11
9 15 8 20 -5 3 -8 6 -17 6 -19 0 -8 -371 -1 -376 7 -3 4 -16 8 -30 8 -13 0
-24 5 -24 12 0 6 -3 9 -6 5 -7 -6 -12 -3 -84 64 -28 25 -50 51 -50 58 0 7 -4
10 -8 7 -5 -3 -17 7 -28 21 -10 15 -49 57 -85 95 -47 49 -70 67 -82 62 -10 -3
-17 -1 -17 5 0 8 -5 9 -19 1 -14 -7 -22 -7 -26 0 -4 6 -11 8 -16 4 -17 -10
-59 -12 -65 -3 -3 5 -15 4 -26 -2 -15 -8 -22 -8 -28 1 -6 9 -9 9 -13 -1 -4
-10 -6 -10 -6 -1 -1 6 -4 11 -8 11 -5 -1 -18 -4 -30 -6z m1084 -322 c9 9 13 8
13 0 0 -8 6 -9 18 -3 9 5 26 6 37 2 11 -4 28 -3 38 2 11 6 17 5 17 -2 0 -6 5
-8 12 -4 19 12 48 12 48 1 0 -5 6 -4 13 2 8 6 16 8 19 5 4 -3 41 -8 85 -11 43
-2 86 -5 96 -6 9 -1 17 -5 17 -10 0 -5 7 -7 15 -3 17 6 19 -2 6 -23 -5 -8 -11
-9 -15 -3 -4 6 -15 9 -26 7 -11 -2 -20 -1 -20 3 0 4 -21 7 -48 7 -26 0 -50 5
-54 10 -5 6 -8 5 -8 -3 0 -7 -5 -10 -11 -6 -18 11 -99 10 -100 -1 0 -7 -2 -7
-5 0 -2 6 -29 9 -59 8 -41 -2 -54 1 -49 10 5 9 3 9 -7 0 -18 -18 -76 -16 -82
1 -7 17 14 28 27 15 5 -5 15 -4 23 2z m492 -37 c5 4 12 2 15 -3 3 -4 19 -11
35 -14 16 -4 52 -17 80 -31 28 -13 48 -19 44 -13 -3 7 5 2 18 -9 13 -12 34
-25 47 -29 12 -3 22 -11 22 -17 0 -6 3 -9 6 -5 4 3 13 0 20 -8 8 -7 19 -15 26
-18 9 -3 10 -8 2 -16 -7 -8 -17 -8 -37 1 -15 7 -27 16 -27 20 0 10 -162 88
-183 88 -9 0 -19 5 -22 10 -3 6 -17 10 -31 10 -13 0 -24 6 -24 13 0 8 -4 7
-10 -3 -7 -11 -10 -11 -10 -2 0 7 -4 10 -10 7 -12 -7 -12 -3 -4 19 5 13 10 14
20 5 7 -6 18 -8 23 -5z m368 -186 c14 -13 41 -38 60 -55 19 -18 39 -33 44 -33
6 0 7 -4 4 -10 -3 -5 1 -10 9 -10 9 0 16 -7 16 -15 0 -9 7 -18 15 -21 8 -3 17
-14 20 -25 4 -11 11 -17 16 -14 5 4 9 0 9 -8 0 -8 7 -18 16 -21 9 -4 14 -9 11
-13 -4 -3 0 -11 8 -17 7 -6 15 -18 17 -26 2 -8 12 -23 22 -32 10 -10 16 -18
12 -18 -4 0 2 -10 14 -22 11 -12 19 -27 17 -33 -2 -5 3 -16 12 -23 11 -9 11
-11 2 -6 -9 5 -6 -5 7 -23 12 -17 22 -36 22 -42 0 -6 5 -11 10 -11 7 0 7 -7 0
-20 -6 -11 -15 -18 -21 -15 -5 4 -7 10 -4 15 3 5 0 14 -7 22 -7 7 -14 20 -16
28 -2 8 -7 17 -10 20 -4 3 -8 12 -10 20 -2 8 -8 17 -13 18 -5 2 -7 8 -3 13 3
5 0 9 -7 9 -7 0 -10 3 -6 6 3 3 1 11 -4 18 -41 48 -48 60 -43 67 3 5 -2 9 -11
9 -9 0 -14 4 -10 9 3 6 -3 14 -12 20 -10 6 -14 11 -10 11 4 0 -4 11 -19 25
-15 14 -23 25 -19 25 4 0 -2 8 -13 19 -12 10 -19 21 -15 25 3 3 1 6 -6 6 -6 0
-37 26 -68 58 -32 31 -51 48 -44 37 7 -11 2 -8 -12 7 -14 15 -28 24 -31 21 -3
-4 -6 -2 -6 4 0 29 25 29 57 1z"/>
<path d="M1481 3152 c-27 -4 -43 -18 -56 -47 -11 -27 -12 -76 -2 -97 4 -10 4
-18 -1 -18 -10 0 -8 -81 2 -98 3 -6 3 -13 -2 -15 -9 -6 -7 -101 3 -116 3 -6 2
-11 -2 -11 -5 0 -9 -18 -9 -40 1 -22 6 -40 11 -40 6 0 3 -5 -5 -10 -13 -8 -13
-10 0 -10 10 0 11 -3 3 -11 -7 -7 -8 -21 -3 -40 5 -18 5 -29 -1 -29 -6 0 -7
-5 -4 -10 4 -6 14 -10 23 -8 10 1 23 -1 30 -5 6 -5 12 -5 12 0 0 4 37 7 82 6
79 -2 83 -1 95 22 6 14 7 27 2 31 -5 3 -9 10 -9 15 0 6 6 7 13 3 9 -6 9 -5 0
7 -7 9 -11 25 -8 37 2 13 -1 22 -8 22 -8 0 -8 3 -2 8 12 8 13 101 1 120 -4 6
-3 12 1 12 9 0 8 74 -2 90 -3 6 0 10 7 10 9 0 9 3 -2 10 -8 5 -10 10 -5 10 11
0 14 100 3 100 -4 0 -4 7 -1 17 4 11 3 14 -5 9 -11 -6 -14 -1 -11 20 1 11 -44
44 -52 38 -5 -3 -9 -1 -9 4 0 11 -52 19 -89 14z"/>
<path d="M3384 2433 c5 -9 0 -13 -16 -13 -13 0 -30 -10 -38 -21 -8 -12 -20
-27 -26 -33 -6 -6 -9 -17 -6 -24 2 -6 -1 -12 -8 -12 -6 0 -9 -4 -5 -9 3 -5 1
-12 -5 -16 -6 -4 -8 -10 -5 -15 3 -5 1 -11 -5 -15 -6 -4 -8 -11 -5 -16 4 -5
-1 -12 -9 -15 -9 -3 -13 -10 -10 -15 3 -5 -2 -16 -10 -25 -9 -8 -16 -22 -16
-30 0 -8 -5 -14 -12 -14 -6 0 -9 -3 -5 -6 6 -6 -12 -30 -60 -80 -18 -18 -33
-38 -33 -44 0 -5 -5 -10 -10 -10 -10 0 -34 -19 -87 -70 -15 -14 -23 -18 -18
-10 4 8 -2 5 -14 -8 -12 -12 -26 -20 -32 -17 -5 4 -9 -1 -9 -10 0 -9 -4 -13
-10 -10 -5 3 -10 1 -10 -5 0 -6 -4 -9 -9 -5 -5 3 -17 -2 -25 -11 -9 -8 -16
-12 -16 -8 0 3 -7 1 -15 -6 -8 -6 -19 -9 -25 -5 -5 3 -10 1 -10 -5 0 -6 -4 -8
-10 -5 -5 3 -10 2 -10 -4 0 -5 -8 -8 -17 -6 -10 1 -22 0 -28 -4 -5 -3 -14 -6
-20 -7 -66 -13 -123 -17 -318 -18 -178 -1 -226 2 -222 12 2 6 1 12 -3 12 -4 0
-7 14 -7 30 0 17 4 30 8 30 5 0 5 5 2 10 -9 14 -9 145 -1 159 4 6 4 11 -1 11
-4 0 -8 23 -8 50 0 28 4 50 8 50 5 0 5 5 1 12 -4 7 -8 24 -8 38 0 14 4 31 8
38 4 7 4 12 -1 12 -10 0 -9 52 1 68 4 7 3 12 -1 12 -5 0 -9 12 -8 27 l0 27
-127 1 c-71 1 -128 -2 -128 -7 0 -5 -6 -6 -12 -1 -17 10 -158 11 -152 1 3 -5
0 -8 -5 -8 -13 0 -10 -22 4 -32 6 -5 5 -8 -3 -8 -9 0 -10 -5 -2 -19 6 -12 6
-22 1 -26 -9 -5 -9 -12 -1 -50 1 -5 1 -13 0 -17 -6 -20 -5 -34 5 -40 7 -5 6
-8 -1 -8 -11 0 -12 -35 -1 -46 3 -4 1 -16 -5 -28 -14 -25 -13 -26 4 -37 7 -5
8 -9 2 -9 -11 0 -12 -28 -1 -46 3 -6 3 -14 -1 -18 -10 -11 -9 -30 3 -39 7 -6
6 -10 -2 -14 -9 -3 -10 -10 -3 -22 5 -10 6 -22 2 -25 -10 -11 -8 -40 3 -48 7
-5 6 -8 -1 -8 -6 0 -10 -22 -9 -55 l1 -55 -92 -94 c-51 -52 -95 -92 -100 -88
-4 4 -4 2 0 -5 3 -6 -4 -19 -16 -27 -12 -9 -18 -16 -13 -16 5 0 -5 -11 -23
-23 -17 -13 -30 -26 -29 -28 3 -4 -114 -121 -123 -123 -3 -1 -5 -3 -4 -6 1 -6
-44 -50 -51 -50 -3 0 -5 -1 -4 -2 1 -2 -25 -29 -56 -60 -53 -53 -56 -58 -41
-74 11 -11 28 -15 51 -12 19 2 35 0 35 -5 0 -5 6 -4 14 2 11 9 15 9 19 -1 3
-7 6 -8 6 -3 1 7 23 9 61 5 33 -3 60 -2 60 2 0 4 10 6 23 4 23 -4 71 17 95 40
7 8 18 14 23 14 5 0 9 4 9 9 0 10 32 51 69 87 13 13 21 24 18 24 -4 0 23 31
60 69 37 38 70 68 74 65 4 -2 9 3 13 11 3 8 14 15 25 15 11 0 22 4 26 9 3 6
15 10 28 10 12 0 32 1 45 1 12 0 22 6 22 13 0 9 3 8 9 -2 6 -9 11 -10 15 -2 4
6 13 8 19 4 17 -11 547 -11 554 0 3 5 9 4 13 -3 5 -8 13 -9 21 -4 8 5 23 9 34
10 47 4 105 15 173 33 39 10 72 16 72 13 0 -4 4 -1 9 6 4 7 14 14 22 16 34 6
65 20 76 35 10 13 12 13 13 2 0 -11 4 -10 13 4 9 11 19 15 27 10 8 -5 11 -4 7
2 -4 6 5 15 18 21 14 7 25 16 25 22 0 6 4 9 10 5 5 -3 17 2 27 12 10 10 34 29
53 43 41 28 70 59 70 73 0 6 3 7 7 4 3 -4 15 4 27 17 69 79 91 106 88 111 -2
4 5 14 15 23 10 9 24 30 31 45 8 18 16 26 25 21 7 -5 6 0 -3 11 -8 10 -10 16
-3 12 11 -7 30 28 25 46 -1 4 2 7 6 7 4 0 14 16 21 35 7 19 16 35 21 35 5 0 7
7 4 15 -4 8 -1 15 5 15 6 0 8 6 5 14 -3 8 0 17 5 21 6 3 9 11 6 16 -4 5 -2 9
4 9 5 0 8 9 6 20 -2 11 0 20 6 20 5 0 9 6 9 14 0 8 6 17 13 19 9 4 8 6 -2 6
-11 1 -11 4 0 18 11 13 11 17 2 20 -7 3 -13 11 -13 19 0 9 -4 12 -10 9 -5 -3
-10 -1 -10 5 0 6 -4 8 -10 5 -5 -3 -10 -2 -10 2 0 5 -28 8 -62 8 -35 -1 -69 4
-77 10 -11 7 -13 7 -7 -2z"/>
<path d="M3701 2423 c-1 -7 -5 -12 -9 -10 -5 1 -25 -15 -45 -35 -20 -21 -34
-38 -31 -38 4 0 1 -7 -6 -15 -7 -8 -9 -15 -4 -15 4 0 3 -5 -4 -12 -7 -7 -12
-20 -12 -31 0 -11 -4 -15 -12 -11 -7 4 -8 3 -4 -4 4 -6 0 -24 -8 -40 -8 -16
-12 -32 -9 -36 4 -3 1 -6 -6 -6 -7 0 -10 -4 -6 -9 3 -6 -3 -14 -12 -20 -11 -6
-13 -11 -5 -11 10 0 10 -4 -2 -16 -9 -8 -16 -22 -16 -30 0 -8 -4 -13 -9 -9 -6
3 -8 -4 -6 -15 2 -11 -1 -20 -6 -20 -5 0 -12 -8 -16 -17 -4 -10 -20 -38 -36
-62 -17 -24 -24 -40 -16 -36 10 6 10 3 -2 -11 -8 -10 -15 -28 -14 -39 0 -11
-3 -28 -7 -37 -5 -9 -4 -19 2 -23 5 -3 6 -15 0 -29 -4 -12 -4 -29 0 -36 5 -9
4 -20 -2 -27 -7 -9 -7 -13 1 -13 8 0 9 -5 1 -19 -7 -13 -7 -22 0 -26 6 -4 7
-13 1 -24 -5 -9 -6 -23 -1 -31 4 -7 6 -24 4 -36 -3 -18 -1 -22 11 -18 8 4 15
13 15 21 0 8 5 11 10 8 6 -3 10 -2 10 3 0 5 12 22 28 38 46 49 92 111 87 118
-3 3 -2 4 1 2 9 -7 33 17 27 27 -2 4 0 7 6 7 5 0 13 9 16 20 4 11 11 17 17 14
6 -4 8 -2 5 3 -4 6 3 22 16 35 42 47 57 68 57 78 0 6 5 10 11 10 5 0 8 4 5 9
-3 5 5 17 19 27 13 10 22 21 19 26 -3 4 6 19 20 33 14 14 23 25 19 25 -3 0 7
16 21 35 15 19 24 35 21 35 -3 0 3 10 14 22 11 11 18 25 15 30 -3 4 0 8 5 8 6
0 11 7 11 16 0 8 5 12 10 9 6 -3 10 3 10 14 0 12 5 21 10 21 6 0 10 7 10 15 0
8 5 15 10 15 5 0 9 3 8 8 -1 4 3 17 10 30 7 12 9 22 5 22 -4 0 -3 4 4 8 8 5 8
15 -3 40 -11 27 -18 32 -38 28 -14 -3 -28 -1 -31 4 -6 9 -24 8 -42 -3 -6 -4
-15 -2 -19 4 -4 8 -9 7 -15 -2 -7 -11 -9 -11 -9 -1 0 9 -5 10 -19 2 -14 -7
-21 -6 -24 3 -3 9 -7 9 -20 -2 -14 -11 -17 -11 -17 0 0 12 -2 12 -9 0 -7 -11
-9 -11 -14 0 -4 10 -6 10 -6 2z"/>
<path d="M1424 2393 c3 -7 1 -15 -4 -18 -6 -4 -10 -11 -10 -16 0 -6 5 -7 11
-3 8 4 8 1 2 -12 -10 -21 -10 -85 1 -103 4 -6 3 -11 -1 -11 -10 0 -9 -133 1
-149 4 -6 3 -11 -1 -11 -10 0 -9 -133 1 -149 4 -6 3 -11 -3 -11 -5 0 -9 -9 -8
-20 1 -11 5 -20 10 -20 6 0 6 -5 0 -12 -8 -12 -10 -30 -3 -43 1 -3 3 -9 4 -13
2 -12 29 -36 46 -41 33 -8 81 -8 86 0 3 5 10 7 15 4 5 -4 9 -2 9 4 0 6 8 8 18
4 9 -3 14 -3 11 1 -4 4 6 21 22 39 18 20 25 33 18 38 -6 3 -7 9 -3 12 11 6 10
349 0 365 -4 7 -4 12 1 12 6 0 9 103 4 155 -1 7 -43 11 -116 11 -90 0 -115 -3
-111 -13z"/>
<path d="M3048 1602 c-10 -2 -18 -8 -18 -14 0 -5 -7 -8 -15 -4 -10 3 -15 -1
-15 -11 0 -9 -3 -14 -6 -10 -4 3 -19 0 -34 -8 -15 -8 -30 -11 -34 -8 -3 4 -6
1 -6 -6 0 -8 -7 -11 -15 -7 -8 3 -15 0 -15 -5 0 -6 -9 -9 -20 -6 -11 3 -20 1
-20 -5 0 -6 -7 -8 -15 -4 -8 3 -15 1 -15 -5 0 -6 -4 -8 -9 -4 -5 3 -12 1 -16
-5 -3 -6 -17 -8 -31 -6 -13 3 -24 1 -24 -3 0 -4 -18 -7 -40 -6 -22 1 -40 -3
-40 -8 0 -5 -7 -4 -15 3 -9 7 -15 8 -15 2 0 -6 -8 -9 -17 -8 -10 2 -21 -2 -25
-8 -5 -6 -8 -7 -8 -1 0 6 -28 8 -72 5 -40 -3 -126 -3 -191 0 -64 3 -117 1
-117 -3 0 -5 -5 -5 -11 -1 -15 9 -139 11 -139 2 0 -4 -13 -3 -29 2 -21 6 -31
5 -35 -3 -3 -8 -8 -7 -15 3 -8 11 -11 12 -11 2 0 -7 -8 -12 -17 -10 -10 1 -24
-1 -30 -5 -7 -5 -13 -5 -13 -1 0 4 -12 -3 -27 -17 -14 -13 -23 -18 -19 -11 13
22 -3 13 -39 -22 -19 -19 -35 -39 -35 -45 0 -6 -5 -11 -11 -11 -6 0 -8 -9 -4
-20 3 -11 2 -20 -2 -20 -12 0 -14 -140 -2 -141 5 -1 17 -2 27 -2 9 -1 20 -6
24 -12 5 -7 8 -7 8 1 0 5 11 10 25 10 14 0 25 -4 25 -9 0 -4 6 -5 13 0 16 10
48 11 69 1 10 -5 19 -4 23 2 4 7 12 7 25 0 12 -6 21 -6 25 -1 5 9 12 9 50 1 6
-1 13 -1 18 0 19 6 33 5 39 -5 5 -7 8 -6 8 1 0 12 38 13 57 1 6 -4 14 -3 17 2
7 10 25 9 43 -2 6 -4 14 -3 17 2 7 10 25 9 42 -2 6 -3 14 -3 18 0 11 11 46 10
46 -1 0 -7 3 -8 8 -1 8 12 41 13 59 2 6 -4 14 -3 17 2 4 5 14 8 24 6 9 -1 25
2 36 7 11 6 16 6 13 1 -4 -6 14 -10 43 -9 28 1 50 3 50 6 0 3 21 6 48 8 84 4
102 7 102 14 0 4 9 5 20 3 11 -2 20 0 20 5 0 4 8 7 18 5 9 -1 23 2 30 8 6 5
12 6 12 2 0 -4 7 -2 15 5 8 6 18 9 24 6 5 -3 11 -1 13 4 2 6 13 12 26 13 12 0
22 5 22 9 0 4 6 8 13 8 6 0 25 7 41 15 15 8 32 12 37 9 5 -3 9 3 9 12 0 10 3
15 6 11 8 -8 84 32 84 45 0 5 4 7 8 4 5 -3 24 8 43 24 19 16 40 29 47 30 6 0
12 7 12 15 0 8 5 14 12 12 25 -5 18 30 -9 44 -15 8 -32 20 -36 27 -5 7 -12 10
-18 7 -5 -4 -9 -2 -9 3 0 13 -76 52 -85 44 -4 -4 -5 0 -3 8 2 8 -3 14 -9 13
-7 -2 -13 2 -13 8 0 5 -4 7 -10 4 -5 -3 -10 -2 -10 3 0 9 -13 10 -42 4z"/>
</g>
</svg>
